<svg width="14" height="15" viewBox="0 0 14 15" fill="none" xmlns="http://www.w3.org/2000/svg">
<path d="M8.3606 12.6055H5.25513V14.5H2.32544V12.6055H0.343018V10.2324H2.32544V9.49023H0.343018V7.11719H2.32544V0.28125H7.85278C8.92049 0.28125 9.85799 0.473307 10.6653 0.857422C11.4726 1.24154 12.0976 1.79167 12.5403 2.50781C12.9895 3.21745 13.2141 4.02799 13.2141 4.93945C13.2141 6.3457 12.7356 7.45573 11.7786 8.26953C10.828 9.08333 9.50317 9.49023 7.80396 9.49023H5.25513V10.2324H8.3606V12.6055ZM5.25513 7.11719H7.78442C9.42505 7.11719 10.2454 6.39779 10.2454 4.95898C10.2454 4.27539 10.037 3.72526 9.62036 3.30859C9.20369 2.88542 8.62752 2.67057 7.89185 2.66406H5.25513V7.11719Z" fill="#FAFAFA"/>
</svg>
