<svg width="14" height="15" viewBox="0 0 14 15" fill="none" xmlns="http://www.w3.org/2000/svg">
<path d="M8.51562 12.8325H5.41016V14.7271H2.48047V12.8325H0.498047V10.4595H2.48047V9.71729H0.498047V7.34424H2.48047V0.508301H8.00781C9.07552 0.508301 10.013 0.700358 10.8203 1.08447C11.6276 1.46859 12.2526 2.01872 12.6953 2.73486C13.1445 3.4445 13.3691 4.25505 13.3691 5.1665C13.3691 6.57275 12.8906 7.68278 11.9336 8.49658C10.9831 9.31038 9.6582 9.71729 7.95898 9.71729H5.41016V10.4595H8.51562V12.8325ZM5.41016 7.34424H7.93945C9.58008 7.34424 10.4004 6.62484 10.4004 5.18604C10.4004 4.50244 10.1921 3.95231 9.77539 3.53564C9.35872 3.11247 8.78255 2.89762 8.04688 2.89111H5.41016V7.34424Z" fill="black"/>
</svg>
