<svg width="12" height="13" viewBox="0 0 12 13" fill="none" xmlns="http://www.w3.org/2000/svg">
<path d="M7.36951 10.583H4.42517V13H2.74646V10.583H0.927124V9.19434H2.74646V7.99023H0.927124V6.61035H2.74646V0.203125H7.46619C8.83728 0.203125 9.92419 0.551758 10.7269 1.24902C11.5297 1.94629 11.931 2.88965 11.931 4.0791C11.931 5.32715 11.5443 6.29102 10.7709 6.9707C10.0033 7.64453 8.91052 7.98438 7.49255 7.99023H4.42517V9.19434H7.36951V10.583ZM4.42517 6.61035H7.46619C8.37439 6.61035 9.0658 6.39648 9.54041 5.96875C10.015 5.54102 10.2523 4.91699 10.2523 4.09668C10.2523 3.35254 10.0062 2.75195 9.51404 2.29492C9.02185 1.83203 8.35681 1.59766 7.51892 1.5918H4.42517V6.61035Z" fill="#8C8C8C"/>
</svg>
